<svg width="311" height="311" viewBox="0 0 311 311" fill="none" xmlns="http://www.w3.org/2000/svg">
<path fill-rule="evenodd" clip-rule="evenodd" d="M238.612 21.5604C241.354 21.5604 243.983 22.6493 245.921 24.5877C247.859 26.526 248.948 29.1549 248.948 31.8962V279.955C248.948 282.697 247.859 285.326 245.921 287.264C243.983 289.202 241.354 290.291 238.612 290.291C235.871 290.291 233.242 289.202 231.304 287.264C229.366 285.326 228.277 282.697 228.277 279.955V31.8962C228.277 29.1549 229.366 26.526 231.304 24.5877C233.242 22.6493 235.871 21.5604 238.612 21.5604ZM197.269 62.9036C200.01 62.9036 202.639 63.9925 204.578 65.9309C206.516 67.8692 207.605 70.4982 207.605 73.2394V279.955C207.605 282.697 206.516 285.326 204.578 287.264C202.639 289.202 200.01 290.291 197.269 290.291C194.528 290.291 191.899 289.202 189.961 287.264C188.022 285.326 186.933 282.697 186.933 279.955V73.2394C186.933 70.4982 188.022 67.8692 189.961 65.9309C191.899 63.9925 194.528 62.9036 197.269 62.9036ZM279.956 62.9036C282.697 62.9036 285.326 63.9925 287.264 65.9309C289.203 67.8692 290.291 70.4982 290.291 73.2394V279.955C290.291 282.697 289.203 285.326 287.264 287.264C285.326 289.202 282.697 290.291 279.956 290.291C277.214 290.291 274.585 289.202 272.647 287.264C270.709 285.326 269.62 282.697 269.62 279.955V73.2394C269.62 70.4982 270.709 67.8692 272.647 65.9309C274.585 63.9925 277.214 62.9036 279.956 62.9036ZM114.583 83.5752C117.324 83.5752 119.953 84.6641 121.891 86.6025C123.83 88.5408 124.919 91.1698 124.919 93.911V279.955C124.919 282.697 123.83 285.326 121.891 287.264C119.953 289.202 117.324 290.291 114.583 290.291C111.842 290.291 109.213 289.202 107.274 287.264C105.336 285.326 104.247 282.697 104.247 279.955V93.911C104.247 91.1698 105.336 88.5408 107.274 86.6025C109.213 84.6641 111.842 83.5752 114.583 83.5752ZM31.8964 104.247C34.6376 104.247 37.2665 105.336 39.2049 107.274C41.1432 109.212 42.2322 111.841 42.2322 114.583V279.955C42.2322 282.697 41.1432 285.326 39.2049 287.264C37.2665 289.202 34.6376 290.291 31.8964 290.291C29.1551 290.291 26.5262 289.202 24.5878 287.264C22.6495 285.326 21.5605 282.697 21.5605 279.955V114.583C21.5605 111.841 22.6495 109.212 24.5878 107.274C26.5262 105.336 29.1551 104.247 31.8964 104.247ZM155.926 104.247C158.667 104.247 161.296 105.336 163.235 107.274C165.173 109.212 166.262 111.841 166.262 114.583V279.955C166.262 282.697 165.173 285.326 163.235 287.264C161.296 289.202 158.667 290.291 155.926 290.291C153.185 290.291 150.556 289.202 148.617 287.264C146.679 285.326 145.59 282.697 145.59 279.955V114.583C145.59 111.841 146.679 109.212 148.617 107.274C150.556 105.336 153.185 104.247 155.926 104.247ZM73.2396 145.59C75.9808 145.59 78.6097 146.679 80.5481 148.617C82.4864 150.556 83.5754 153.185 83.5754 155.926V279.955C83.5754 282.697 82.4864 285.326 80.5481 287.264C78.6097 289.202 75.9808 290.291 73.2396 290.291C70.4983 290.291 67.8694 289.202 65.9311 287.264C63.9927 285.326 62.9038 282.697 62.9038 279.955V155.926C62.9038 153.185 63.9927 150.556 65.9311 148.617C67.8694 146.679 70.4983 145.59 73.2396 145.59Z" fill="#7656D4"/>
</svg>
